<mxfile host="app.diagrams.net" modified="2024-01-30T05:00:57.913Z" agent="Mozilla/5.0 (Macintosh; Intel Mac OS X 10_15_7) AppleWebKit/605.1.15 (KHTML, like Gecko) Version/17.3 Safari/605.1.15" etag="mGI9kfRJiXQQWcWTbGs0" version="23.0.2" type="device">
  <diagram name="Page-1" id="46CoxesseRQjKcq4pKPv">
    <mxGraphModel dx="1434" dy="827" grid="1" gridSize="10" guides="1" tooltips="1" connect="1" arrows="1" fold="1" page="1" pageScale="1" pageWidth="2339" pageHeight="3300" math="0" shadow="0">
      <root>
        <mxCell id="0" />
        <mxCell id="1" parent="0" />
        <mxCell id="AvoYs_XFrnwgugaDLMyx-14" style="edgeStyle=orthogonalEdgeStyle;rounded=0;orthogonalLoop=1;jettySize=auto;html=1;exitX=0.5;exitY=1;exitDx=0;exitDy=0;entryX=0.5;entryY=0;entryDx=0;entryDy=0;" edge="1" parent="1" source="AvoYs_XFrnwgugaDLMyx-1" target="AvoYs_XFrnwgugaDLMyx-3">
          <mxGeometry relative="1" as="geometry" />
        </mxCell>
        <mxCell id="AvoYs_XFrnwgugaDLMyx-1" value="NGINX&lt;br&gt;(webserver)" style="rounded=0;whiteSpace=wrap;html=1;" vertex="1" parent="1">
          <mxGeometry x="440" y="200" width="120" height="60" as="geometry" />
        </mxCell>
        <mxCell id="AvoYs_XFrnwgugaDLMyx-11" style="edgeStyle=orthogonalEdgeStyle;rounded=0;orthogonalLoop=1;jettySize=auto;html=1;exitX=1;exitY=0.5;exitDx=0;exitDy=0;entryX=0;entryY=0.5;entryDx=0;entryDy=0;" edge="1" parent="1" source="AvoYs_XFrnwgugaDLMyx-2" target="AvoYs_XFrnwgugaDLMyx-1">
          <mxGeometry relative="1" as="geometry" />
        </mxCell>
        <mxCell id="AvoYs_XFrnwgugaDLMyx-12" style="edgeStyle=orthogonalEdgeStyle;rounded=0;orthogonalLoop=1;jettySize=auto;html=1;exitX=1;exitY=0.75;exitDx=0;exitDy=0;entryX=0;entryY=0.5;entryDx=0;entryDy=0;" edge="1" parent="1" source="AvoYs_XFrnwgugaDLMyx-2" target="AvoYs_XFrnwgugaDLMyx-3">
          <mxGeometry relative="1" as="geometry" />
        </mxCell>
        <mxCell id="AvoYs_XFrnwgugaDLMyx-2" value="NGINX&lt;br&gt;(Reverse Proxy)" style="rounded=0;whiteSpace=wrap;html=1;" vertex="1" parent="1">
          <mxGeometry x="240" y="240" width="120" height="60" as="geometry" />
        </mxCell>
        <mxCell id="AvoYs_XFrnwgugaDLMyx-13" style="edgeStyle=orthogonalEdgeStyle;rounded=0;orthogonalLoop=1;jettySize=auto;html=1;exitX=1;exitY=0.5;exitDx=0;exitDy=0;entryX=0;entryY=0.5;entryDx=0;entryDy=0;" edge="1" parent="1" source="AvoYs_XFrnwgugaDLMyx-3" target="AvoYs_XFrnwgugaDLMyx-4">
          <mxGeometry relative="1" as="geometry" />
        </mxCell>
        <mxCell id="AvoYs_XFrnwgugaDLMyx-3" value="Fastapi&lt;br&gt;(API)" style="rounded=0;whiteSpace=wrap;html=1;" vertex="1" parent="1">
          <mxGeometry x="440" y="310" width="120" height="60" as="geometry" />
        </mxCell>
        <mxCell id="AvoYs_XFrnwgugaDLMyx-4" value="Postgre&lt;br&gt;(Database)" style="rounded=0;whiteSpace=wrap;html=1;" vertex="1" parent="1">
          <mxGeometry x="620" y="240" width="120" height="60" as="geometry" />
        </mxCell>
        <mxCell id="AvoYs_XFrnwgugaDLMyx-7" style="edgeStyle=orthogonalEdgeStyle;rounded=0;orthogonalLoop=1;jettySize=auto;html=1;entryX=0;entryY=0.5;entryDx=0;entryDy=0;exitX=0.95;exitY=0.538;exitDx=0;exitDy=0;exitPerimeter=0;" edge="1" parent="1" source="AvoYs_XFrnwgugaDLMyx-8" target="AvoYs_XFrnwgugaDLMyx-2">
          <mxGeometry relative="1" as="geometry">
            <mxPoint x="190" y="270" as="sourcePoint" />
          </mxGeometry>
        </mxCell>
        <mxCell id="AvoYs_XFrnwgugaDLMyx-8" value="Internet" style="ellipse;shape=cloud;whiteSpace=wrap;html=1;" vertex="1" parent="1">
          <mxGeometry x="60" y="230" width="120" height="80" as="geometry" />
        </mxCell>
      </root>
    </mxGraphModel>
  </diagram>
</mxfile>
